<?xml version="1.0" encoding="utf-8"?>
<!-- Generator: Adobe Illustrator 22.1.0, SVG Export Plug-In . SVG Version: 6.00 Build 0)  -->
<svg version="1.1" id="Layer_1" xmlns="http://www.w3.org/2000/svg" xmlns:xlink="http://www.w3.org/1999/xlink" x="0px" y="0px"
	 viewBox="0 0 631 517.1" style="enable-background:new 0 0 631 517.1;" xml:space="preserve">
<style type="text/css">
	.st0{fill:#FFDC68;}
	.st1{fill:#FFF2C6;}
	.st2{fill:#FFEDB4;}
	.st3{fill:url(#SVGID_1_);}
	.st4{fill:#FFFFFF;}
</style>
<g id="surface1">
	<path class="st0" d="M531.6,0l42.2,31.7l-79.1,105.5l-42.3-31.7L531.6,0z"/>
	<path class="st0" d="M98.9,0L178,105.5l-42.2,31.7L56.7,31.7L98.9,0z"/>
	<path class="st1" d="M79,370.7c25.7,51.7,67.2,93.3,119,119c130.6,64.7,288.8,11.2,353.8-119c1.6-3.7,2.6-7.9,2.6-11.9
		c0-14.5-11.9-26.4-26.4-26.4H102.6c-9.2,0-17.5,4.6-22.4,12.5C75.2,352.5,74.9,362.4,79,370.7z"/>
	<path class="st2" d="M275.7,514.1c13.2,2,26.4,3,39.6,3c100.2,0.3,191.9-56.4,236.4-146.1c1.6-3.7,2.6-7.9,2.6-11.9
		c0-14.5-11.9-26.4-26.4-26.4h-79.1c4.3,0,8.3,1,11.9,2.6c13.2,6.3,18.5,22.1,11.9,35.3C434.3,447.8,360.8,501.5,275.7,514.1z"/>
	
		<linearGradient id="SVGID_1_" gradientUnits="userSpaceOnUse" x1="-381.5518" y1="688.7149" x2="-232.854" y2="540.017" gradientTransform="matrix(-2.6646 0 0 2.6646 -503.4886 -1427.6299)">
		<stop  offset="0" style="stop-color:#FF99B5"/>
		<stop  offset="1" style="stop-color:#FFDC68"/>
	</linearGradient>
	<path class="st3" d="M77.8,253.2c0,14.5,11.9,26.4,26.4,26.4h422.1c14.5,0,26.4-11.9,26.4-26.4c0-130.9-106.5-237.4-237.4-237.4
		S77.9,122.3,77.8,253.2z"/>
	<path class="st0" d="M7.7,313.5l70.2-60.3h474.8l70.6,60.4c16.2,16.5,4.3,45.2-18.8,45.2H26.1C3,358.8-8.9,330.1,7.7,313.5z"/>
	<path class="st4" d="M209.8,95c14.5,0,26.4,11.7,26.4,26.3s-11.8,26.4-26.4,26.4s-26.4-11.8-26.4-26.4
		C183.4,106.8,195.3,95,209.8,95z"/>
</g>
</svg>
