<?xml version="1.0" encoding="utf-8"?>
<!-- Generator: Adobe Illustrator 22.1.0, SVG Export Plug-In . SVG Version: 6.00 Build 0)  -->
<svg version="1.1" id="Layer_1" xmlns="http://www.w3.org/2000/svg" xmlns:xlink="http://www.w3.org/1999/xlink" x="0px" y="0px"
	 viewBox="0 0 512 406.3" style="enable-background:new 0 0 512 406.3;" xml:space="preserve">
<style type="text/css">
	.st0{fill:#877E73;}
	.st1{fill:#B6CECC;}
	.st2{fill:#CFE5E2;}
	.st3{fill:#9379AD;}
	.st4{fill:#694887;}
	.st5{fill:#80995F;}
	.st6{fill:#A6BE65;}
</style>
<path class="st0" d="M140.3,155.9c-3,0-5.9-1.2-8.1-3.5L36.5,51.1c-4.3-4.4-4.1-11.5,0.4-15.7c4.4-4.3,11.5-4.1,15.7,0.4l95.7,101.3
	c4.3,4.4,4.1,11.5-0.4,15.7C145.7,154.8,143,155.8,140.3,155.9z M475.5,51.1c4.3-4.4,4.1-11.5-0.4-15.7c-4.4-4.3-11.5-4.1-15.7,0.4
	l-95.7,101.3c-4.3,4.4-4.1,11.5,0.4,15.7c2.1,2,4.9,3,7.6,3c3,0,5.9-1.2,8.1-3.5L475.5,51.1z"/>
<path class="st1" d="M100.2,197.5v-13.8c0-86,69.7-155.8,155.8-155.8l0,0c86,0,155.8,69.7,155.8,155.8v13.8H100.2z"/>
<path class="st2" d="M151,135.4c15.7-44.4,57.9-74.2,105-74.2c6.1,0,11.1,5,11.1,11.1s-5,11.1-11.1,11.1c-37.7,0-71.5,23.9-84,59.4
	c-1.6,4.5-5.9,7.4-10.5,7.4c-1.2,0-2.5-0.2-3.7-0.6C152,147.6,149,141.2,151,135.4z"/>
<path class="st3" d="M3.7,264.4l46.7-41.5c20.3-18.1,46.6-28.1,73.9-28.1h263.3c27.2,0,53.5,10,73.9,28.1l46.7,41.5
	c7.6,6.8,2.8,19.4-7.4,19.4h-22.2c0,67.6-99.7,122.4-222.6,122.4S33.4,351.4,33.4,283.8H11.2C0.9,283.8-3.9,271.2,3.7,264.4z"/>
<path class="st4" d="M478.6,283.8c0,67.6-99.7,122.4-222.6,122.4S33.4,351.4,33.4,283.8H478.6z"/>
<path class="st5" d="M33.4,0c18.4,0,33.4,15,33.4,33.4S51.9,66.8,33.4,66.8S0,51.8,0,33.4C0,15,15,0,33.4,0z M445.2,33.4
	c0,18.4,14.9,33.4,33.4,33.4s33.4-15,33.4-33.4S497.1,0,478.6,0C460.2,0,445.2,15,445.2,33.4z"/>
<path class="st6" d="M44.5,27.8c0,9.2-7.5,16.7-16.7,16.7S11.1,37,11.1,27.8s7.5-16.7,16.7-16.7S44.5,18.6,44.5,27.8z M467.5,27.8
	c0,9.2,7.5,16.7,16.7,16.7c9.2,0,16.7-7.5,16.7-16.7s-7.5-16.7-16.7-16.7C475,11.1,467.5,18.6,467.5,27.8z"/>
</svg>
