<?xml version="1.0" encoding="utf-8"?>
<!-- Generator: Adobe Illustrator 22.1.0, SVG Export Plug-In . SVG Version: 6.00 Build 0)  -->
<svg version="1.1" id="Capa_1" xmlns="http://www.w3.org/2000/svg" xmlns:xlink="http://www.w3.org/1999/xlink" x="0px" y="0px"
	 viewBox="0 0 512 414.5" style="enable-background:new 0 0 512 414.5;" xml:space="preserve">
<style type="text/css">
	.st0{fill:#D49E6C;}
	.st1{fill:#B68052;}
	.st2{fill:#9D693C;}
</style>
<g>
	<path class="st0" d="M155.8,413.9c-2.1-0.2-4.1-0.3-6.1-0.5C151.7,413.5,153.7,413.7,155.8,413.9z"/>
	<path class="st0" d="M26.3,351.1c23.2,39,70.4,57.7,123.3,62.3c-6.1-0.5-12-1.2-17.9-2.1c85.9-16.5,155.4-70.1,198.2-129.9
		c-16.5-5.5-27.5-16-26.2-26.7c1.7-13.7,23-22.4,47.6-19.5c1.9,0.3,3.7,0.6,5.5,0.9c15.8-33.4,22.8-66.4,19.3-93.7
		C365,56,252.1,38.2,196.3,44.5c6.3-4.3,12.4-8.4,18.6-12.2c-13.2,8.1-26.5,17.4-40.5,28.3c-3.1,2.5-4,6.9-1.9,10.4
		c5.6,9.4-0.5,28.8-20.1,43.9c-14.5,11.1-32,15.7-42.8,11.2c-3-1.3-6.5-0.6-8.8,1.8c-7.5,7.7-14.6,15.1-21.2,22.1
		c-16.7,17.6-31.2,32.8-42.1,41.1C-30.4,242.6,11.8,326.5,26.3,351.1z M232.8,157.6c-5.1-19.3,18.7-42.4,53.2-51.5
		s66.6-0.9,71.7,18.4S339,166.9,304.5,176S237.9,176.9,232.8,157.6z M169.5,316.8c-0.5-15.8,20.5-29.5,47.1-30.5s48.6,11,49.2,26.9
		c0.5,15.8-20.5,29.5-47.1,30.5S170.1,332.7,169.5,316.8z M132.4,200.5c17.8-6.9,35.6-3.9,39.8,6.9s-6.7,25.1-24.5,32.1
		c-17.8,6.9-35.6,3.9-39.8-6.9C103.7,221.8,114.6,207.5,132.4,200.5z M53.7,288.9c7.5-7.9,24.6-3.9,38.1,9s18.2,29.8,10.7,37.7
		s-24.6,3.9-38.1-9S46.1,296.8,53.7,288.9z"/>
	<path class="st1" d="M131.6,411.2c5.9,0.9,11.9,1.6,17.9,2.1h0.1c2.1,0.2,4.1,0.4,6.1,0.5c0.1,0,0.2,0,0.3,0c1.5,0.1,3,0.2,4.5,0.3
		c0.5,0.1,0.9,0.1,1.4,0.1c1.2,0,2.4,0.1,3.6,0.1c1.8,0,3.5,0.1,5.2,0.1c1.9,0.1,3.8,0.1,5.7,0.1c32.6,0,66.2-4.8,96.8-12.9l15-4
		c95.9-25.3,195.1-51.4,216.7-138c20.6-82.4-2.4-192-85.3-232.7c-54-26.4-120.5-46.4-204.6,5.4c-6.2,3.8-12.4,7.9-18.6,12.2
		c55.8-6.3,168.7,11.5,179.8,97.9c3.5,27.4-3.5,60.3-19.3,93.7c-1.8-0.4-3.6-0.7-5.5-0.9c-24.7-2.9-46,5.8-47.6,19.5
		c-1.3,10.6,9.7,21.2,26.2,26.7C287.1,341.1,217.6,394.8,131.6,411.2z M370.1,45.9c-1.3,3-4.3,4.9-7.4,4.9c-1.1,0-2.1-0.2-3.1-0.6
		c-6.3-2.7-18.1-3.6-24.3-0.9c-4.1,1.7-8.7-0.2-10.5-4.2c-1.7-4,0.1-8.7,4.2-10.5c11.1-4.8,27.2-3.2,36.8,0.8
		C369.9,37.1,371.8,41.7,370.1,45.9z M426.6,70.8c-14.3-1.5-27.8-3.1-39-8.5c-4-1.9-5.6-6.7-3.7-10.7s6.7-5.6,10.7-3.7
		c8.8,4.2,20.9,5.6,33.8,7c11.3,1.2,23.8,2.6,35.8,6.4c9.9,11.2,18.3,23.6,25,37.1C475.3,76.2,450.6,73.4,426.6,70.8z M403.9,211.6
		c8.8-0.7,16,1.2,22,5.8c3.5,2.7,4.2,7.7,1.5,11.2c-1.6,2-4,3.1-6.4,3.1c-1.7,0-3.4-0.6-4.9-1.7c-1.9-1.5-4.9-3.1-11-2.6
		c-4.3,0.2-8.2-3-8.6-7.4C396.2,215.6,399.5,211.7,403.9,211.6z M438.8,190.5c-12.3,1.7-24.8-14.8-27.9-36.9s4.3-41.5,16.6-43.2
		c12.3-1.7,24.8,14.8,27.9,36.9C458.6,169.4,451.1,188.8,438.8,190.5z M400.3,287.9c9.3-0.9,17.5-6.1,22.5-14
		c4.6-7.3,5.6-15.8,2.9-23.5c-1.4-4.2,0.7-8.7,4.9-10.2c4.1-1.5,8.7,0.7,10.2,4.9c4.3,12.4,2.7,26-4.5,37.4
		c-7.6,12.1-20.1,19.9-34.3,21.4c-0.3,0-0.6,0-0.9,0c-4,0-7.5-3.1-7.9-7.2C392.7,292.3,395.9,288.4,400.3,287.9z M345.4,284.8
		c-5.5-0.7-10.7-1.9-15.4-3.5c10.6-14.9,19.6-30.1,26.8-45.3c21.8,4.2,37.6,16.6,36.1,29.3C391.3,279,370,287.7,345.4,284.8z
		 M221.6,411.6c0.2-0.1,0.3-0.2,0.4-0.2c21.7-6.4,31.3-20,41.5-34.4c8.3-11.8,16.9-24,32.1-31c11.9-5.5,26.7-12.3,28.7-23.7
		c0.7-4.3,4.7-7.2,9.2-6.5c4.3,0.7,7.3,4.8,6.5,9.2c-3.4,19.7-23.3,28.8-37.8,35.5c-11.3,5.2-17.9,14.7-25.7,25.7
		c-4.2,5.9-8.6,12.1-13.9,17.9C249.3,407.2,235.5,409.8,221.6,411.6z"/>
	
		<ellipse transform="matrix(0.9993 -3.749974e-02 3.749974e-02 0.9993 -11.6597 8.3846)" class="st1" cx="217.7" cy="315" rx="48.2" ry="28.7"/>
	<ellipse transform="matrix(0.931 -0.365 0.365 0.931 -70.6332 66.2877)" class="st1" cx="140" cy="220" rx="34.5" ry="20.9"/>
	
		<ellipse transform="matrix(0.6915 -0.7224 0.7224 0.6915 -201.4267 152.7519)" class="st1" cx="78.1" cy="312.2" rx="19.9" ry="33.8"/>
	
		<ellipse transform="matrix(0.9901 -0.1401 0.1401 0.9901 -16.8162 62.1716)" class="st2" cx="433.2" cy="150.5" rx="22.5" ry="40.4"/>
	<path class="st2" d="M370.1,45.8c1.7-4-0.2-8.7-4.3-10.4c-9.6-4-25.7-5.6-36.8-0.8c-4.1,1.7-6,6.4-4.2,10.5c1.7,4.1,6.4,6,10.5,4.2
		c6.2-2.6,17.9-1.7,24.3,0.9c1,0.4,2.1,0.6,3.1,0.6C365.9,50.8,368.8,48.9,370.1,45.8z"/>
	<path class="st2" d="M393.2,296.7c0.4,4.1,3.9,7.2,7.9,7.2c0.3,0,0.6,0,0.9,0c14.1-1.5,26.7-9.3,34.3-21.4
		c7.3-11.5,8.9-25.1,4.5-37.4c-1.5-4.2-6.1-6.4-10.2-4.9c-4.2,1.5-6.4,6-4.9,10.2c2.7,7.7,1.7,16.2-2.9,23.5c-5,7.9-13.2,13-22.5,14
		C395.9,288.4,392.7,292.3,393.2,296.7z"/>
	<path class="st2" d="M403.8,211.2c-4.4,0.4-7.7,4.2-7.4,8.6c0.4,4.4,4.3,7.7,8.6,7.4c6.1-0.5,9.1,1.1,11,2.6
		c1.5,1.2,3.2,1.7,4.9,1.7c2.5,0,4.8-1,6.4-3.1c2.7-3.5,2-8.5-1.5-11.2C419.8,212.6,412.7,210.7,403.8,211.2z"/>
	<path class="st2" d="M329.9,281.3c4.7,1.6,9.9,2.8,15.4,3.5c24.7,2.9,46-5.8,47.6-19.5c1.5-12.7-14.3-25.2-36.1-29.3
		C349.6,251.2,340.6,266.4,329.9,281.3z"/>
	
		<ellipse transform="matrix(0.9666 -0.2563 0.2563 0.9666 -26.2899 80.394)" class="st1" cx="295.3" cy="141.1" rx="64.6" ry="36.1"/>
	<path class="st2" d="M426.7,70.7c24,2.7,48.7,5.4,62.6,27.6c-6.7-13.5-15.1-26-25-37.1c-12-3.7-24.5-5.1-35.8-6.4
		c-12.9-1.4-25.1-2.8-33.8-7c-4-1.9-8.8-0.3-10.7,3.7c-1.9,4-0.3,8.8,3.7,10.7C398.9,67.7,412.4,69.2,426.7,70.7z"/>
	<path class="st2" d="M221.8,411.3c-0.2,0.1-0.3,0.2-0.4,0.2c14-1.7,27.7-4.3,41.1-7.4c5.4-5.9,9.8-12,13.9-17.9
		c7.7-11,14.4-20.5,25.7-25.7c14.5-6.7,34.4-15.8,37.8-35.5c0.8-4.3-2.1-8.4-6.5-9.2c-4.4-0.7-8.4,2.2-9.2,6.5
		c-1.9,11.4-16.8,18.2-28.7,23.7c-15.2,7-23.8,19.2-32.1,31C253.3,391.4,243.7,405,221.8,411.3z"/>
</g>
</svg>
