<?xml version="1.0" encoding="utf-8"?>
<!-- Generator: Adobe Illustrator 22.1.0, SVG Export Plug-In . SVG Version: 6.00 Build 0)  -->
<svg version="1.1" id="Layer_1" xmlns="http://www.w3.org/2000/svg" xmlns:xlink="http://www.w3.org/1999/xlink" x="0px" y="0px"
	 viewBox="0 0 512 395.5" style="enable-background:new 0 0 512 395.5;" xml:space="preserve">
<style type="text/css">
	.st0{fill:#3A5D74;}
	.st1{opacity:0.1;fill:#231F20;enable-background:new    ;}
	.st2{fill:#CAE9F7;}
	.st3{fill:#90C8EC;}
	.st4{fill:#FF4D30;}
	.st5{fill:#578CAD;}
	.st6{fill:#4E85A0;}
</style>
<path class="st0" d="M123.3,354.3v19.4c0,12,9.7,21.8,21.8,21.8h24.7h29h168.1c12,0,21.8-9.8,21.8-21.8v-19.4H123.3z"/>
<path class="st1" d="M348.7,395.5h18.2c12,0,21.8-9.8,21.8-21.8v-19.4h-18.2v19.4C370.5,385.7,360.8,395.5,348.7,395.5z"/>
<path class="st2" d="M247.5,117.6V33.4c0-4.7,3.8-8.5,8.5-8.5s8.5,3.8,8.5,8.5v84.3c0,4.7-3.8,8.5-8.5,8.5S247.5,122.4,247.5,117.6z
	"/>
<path class="st3" d="M255.4,95.6c-80.3,0-147,58.5-159.6,135.3h319.3C402.4,154.2,335.8,95.6,255.4,95.6z"/>
<path class="st0" d="M197.2,203.7V231h116.4v-27.3c0-12-9.8-21.8-21.8-21.8h-72.7C207,181.9,197.3,191.6,197.2,203.7z"/>
<g>
	<path class="st1" d="M396.8,230.8H415c-12.6-76.7-79.3-135.3-159.6-135.3c-3.1,0-6.1,0.1-9.1,0.3
		C322.6,100.1,384.7,157.1,396.8,230.8z"/>
	<path class="st1" d="M295.4,203.7V231h18.2v-27.3c0-12-9.8-21.8-21.8-21.8h-18.2C285.7,181.9,295.4,191.6,295.4,203.7z"/>
</g>
<circle class="st4" cx="255.4" cy="24.3" r="24.3"/>
<path class="st1" d="M246.4,46.8c2.8,1.2,5.9,1.8,9.1,1.8c13.4,0,24.3-10.9,24.3-24.3S268.9,0,255.5,0c-3.2,0-6.3,0.7-9.1,1.8
	c8.9,3.6,15.2,12.3,15.2,22.5S255.3,43.2,246.4,46.8z"/>
<path class="st5" d="M1,352.2c1.3,2.7,4,4.3,7,4.3h496.1c2.9,0,5.6-1.7,7-4.3s1.2-5.8-0.5-8.2L483,304.4v-37
	c0-21.4-17.4-38.8-38.8-38.8H67.8C46.4,228.6,29,246,29,267.4v37L1.4,344C-0.3,346.5-0.5,349.6,1,352.2z"/>
<path class="st6" d="M510.6,344l-27.7-39.5H29.1L1.5,344.1c-1.7,2.4-1.9,5.6-0.5,8.2c1.3,2.7,4,4.3,7,4.3h496.1c2.9,0,5.6-1.7,7-4.3
	C512.5,349.6,512.3,346.5,510.6,344z"/>
<path class="st1" d="M491.5,356.5h12.6c2.9,0,5.6-1.7,7-4.3s1.2-5.8-0.5-8.2L483,304.4v-37c0-21.4-17.4-38.8-38.8-38.8H426
	c21.4,0,38.8,17.4,38.8,38.8v39.3l27.6,39.6c1.7,2.4,1.9,5.6,0.5,8.2C492.5,355.3,492,356,491.5,356.5z"/>
</svg>
