<svg id="Capa_1" data-name="Capa 1" xmlns="http://www.w3.org/2000/svg" viewBox="0 0 619.1 510"><defs><style>.cls-1{fill:#a8d3d8;}.cls-2{fill:#8ebac5;}.cls-3{fill:#00ccb2;}.cls-4{fill:#00ab94;}.cls-5{fill:#5a5a5a;}.cls-6{fill:#444;}.cls-7{fill:#00ddc1;}.cls-8{fill:#deecf1;}.cls-9{fill:#fdbf00;}.cls-10{fill:#ff9f00;}.cls-11{fill:none;}</style></defs><title>007-spaceship-1-1</title><rect class="cls-1" x="540.3" y="240" width="78.8" height="30"/><rect class="cls-2" x="540.3" y="255" width="78.8" height="15"/><polygon class="cls-3" points="339.6 180 264.6 30 345.3 30 345.3 0 165.3 0 165.3 180 252.6 210 339.6 180"/><polygon class="cls-4" points="345.3 480 264.6 480 339.6 330 264.7 300 165.3 330 165.3 510 345.3 510 345.3 480"/><path class="cls-5" d="M550.8,266.5,561.6,256l-10.8-10.5A217.3,217.3,0,0,0,395.4,181H165.3V331H395.4A217.3,217.3,0,0,0,550.8,266.5Z" transform="translate(0 -1)"/><path class="cls-6" d="M395.4,331H165.3V256H561.6l-10.8,10.5A217.3,217.3,0,0,1,395.4,331Z" transform="translate(0 -1)"/><rect class="cls-7" x="375.3" y="240" width="90" height="30"/><rect class="cls-1" x="135.3" y="240" width="90" height="30"/><path class="cls-8" d="M210.3,211h-90V121h90a45,45,0,0,1,0,90Z" transform="translate(0 -1)"/><path class="cls-1" d="M210.3,211h-90V166h135A44.9,44.9,0,0,1,210.3,211Z" transform="translate(0 -1)"/><path class="cls-9" d="M135.3,166a44.9,44.9,0,0,0-45-45c-5.7,0-11.7,1.2-18.9,4.2L28,166l45.2,41.7A48.1,48.1,0,0,0,90.3,211,44.9,44.9,0,0,0,135.3,166Z" transform="translate(0 -1)"/><path class="cls-10" d="M90.3,211a48.1,48.1,0,0,1-17.1-3.3L28,166H135.3A44.9,44.9,0,0,1,90.3,211Z" transform="translate(0 -1)"/><path class="cls-8" d="M210.3,391h-90V301h90a45,45,0,0,1,0,90Z" transform="translate(0 -1)"/><path class="cls-1" d="M210.3,391h-90V346h135A44.9,44.9,0,0,1,210.3,391Z" transform="translate(0 -1)"/><path class="cls-9" d="M135.3,346a44.9,44.9,0,0,0-45-45c-5.7,0-11.7,1.2-18.9,4.2L28,346l45.2,41.7A48.1,48.1,0,0,0,90.3,391,44.9,44.9,0,0,0,135.3,346Z" transform="translate(0 -1)"/><path class="cls-10" d="M90.3,391a48.1,48.1,0,0,1-17.1-3.3L28,346H135.3A44.9,44.9,0,0,1,90.3,391Z" transform="translate(0 -1)"/><rect class="cls-3" x="375.3" y="255" width="90" height="15"/><rect class="cls-2" x="135.3" y="255" width="90" height="15"/><rect class="cls-11" y="120" width="28" height="255"/></svg>