<?xml version="1.0" encoding="utf-8"?>
<!-- Generator: Adobe Illustrator 22.1.0, SVG Export Plug-In . SVG Version: 6.00 Build 0)  -->
<svg version="1.1" id="Layer_1" xmlns="http://www.w3.org/2000/svg" xmlns:xlink="http://www.w3.org/1999/xlink" x="0px" y="0px"
	 viewBox="0 0 404 370.5" style="enable-background:new 0 0 404 370.5;" xml:space="preserve">
<style type="text/css">
	.st0{fill:#B7A39A;}
	.st1{fill:#A08E87;}
	.st2{fill:#898890;}
	.st3{fill:#75747A;}
</style>
<path class="st0" d="M16.4,171.7c9.6,12.8,13.2,29.2,8.8,44.5c-2.1,7.6-3.5,15.5-4,23.7c-3.6,60.4,42.7,112.8,103,116.8
	c14.8,0.9,29.3-1.1,42.6-5.6c18.2-6.1,38-4.1,55,4.9c25.8,13.8,56.5,18.5,87.2,11.1c66.6-16,107.6-83,91.6-149.6
	c-7.7-32.1-27.3-58.3-53-75c-21.3-13.8-36.4-35.3-42.1-60.1c-7.3-31.6-29-59.5-61-73.5c-38-16.6-80.4-9.2-110.3,15.6
	c-13.4,11-30.3,16.8-47.6,15.9C77,39.9,67.1,41,57.4,44.1c-41.9,13.2-66.2,57.6-54.6,100C5.6,154.4,10.3,163.7,16.4,171.7z"/>
<path class="st1" d="M175.1,3.5c23.1,20,62.2,62.3,73.5,126.7c16.3,93.1,66.2,107.3,0,189.7c-10.1,12.6-18.6,24.9-25.7,36.7
	c25.6,13.3,55.9,17.8,86.1,10.5c66.6-16,107.6-83,91.6-149.6c-7.7-32.1-27.3-58.3-53-75c-21.3-13.8-36.4-35.3-42.1-60.1
	c-7.3-31.6-29-59.5-61-73.5C221.7-1,197.4-2.4,175.1,3.5z"/>
<g>
	<path class="st2" d="M320,197.3c23.4,0,44.8-8.3,61.6-22.1c-9.2-13.1-20.8-24.2-34-32.8c-21.3-13.8-36.4-35.3-42.1-60.1
		c-5.7-24.6-20.2-47-41.4-62.3c-25.1,17.7-41.5,46.8-41.5,79.8C222.6,153.6,266.2,197.3,320,197.3z"/>
	<path class="st2" d="M25.2,276.9c5,1,10.2,1.6,15.5,1.6c41.1,0,74.5-33.3,74.5-74.5c0-41.1-33.3-74.5-74.5-74.5
		c-14.2,0-27.5,4-38.8,10.9c0.3,1.2,0.6,2.5,0.9,3.7c2.8,10.3,7.5,19.6,13.5,27.6c9.6,12.8,13.2,29.2,8.8,44.5
		c-2.1,7.6-3.5,15.5-4,23.7C20.3,252.8,21.8,265.2,25.2,276.9z"/>
	<path class="st2" d="M157.7,353.7c3-0.7,6-1.6,9-2.6c18.2-6.1,38-4.1,55,4.9c19.7,10.4,42.3,15.7,65.5,14.3
		c0.5-3.1,0.7-6.3,0.7-9.5c0-36.1-29.2-65.3-65.3-65.3C188.9,295.5,161.2,321,157.7,353.7z"/>
	<path class="st2" d="M190.5,185.3c14.4,0,26.1,11.7,26.1,26.1s-11.7,26.1-26.1,26.1c-14.4,0-26.1-11.7-26.1-26.1
		S176.1,185.3,190.5,185.3z"/>
</g>
<path class="st3" d="M222.9,356.7c19.4,10.1,41.5,15.1,64.3,13.7c0.5-3.1,0.7-6.3,0.7-9.5c0-22.7-11.5-42.7-29.1-54.4
	c-3,4.2-6.4,8.7-10.2,13.4C238.5,332.5,230,344.7,222.9,356.7z"/>
<path class="st3" d="M320,197.3c23.4,0,44.8-8.3,61.6-22c-9.2-13.1-20.8-24.2-34-32.8c-21.3-13.8-36.4-35.3-42.1-60.1
	c-5.7-24.6-20.2-47-41.4-62.3c-16.9,11.9-29.8,29-36.5,49c9.2,17.5,16.9,37.9,21,61.1c3.2,18.4,7.8,33.8,12.5,47.2
	C277.4,189.9,297.9,197.3,320,197.3z"/>
</svg>
