<?xml version="1.0" encoding="utf-8"?>
<!-- Generator: Adobe Illustrator 22.1.0, SVG Export Plug-In . SVG Version: 6.00 Build 0)  -->
<svg version="1.1" id="Capa_1" xmlns="http://www.w3.org/2000/svg" xmlns:xlink="http://www.w3.org/1999/xlink" x="0px" y="0px"
	 viewBox="0 0 469.3 512" style="enable-background:new 0 0 469.3 512;" xml:space="preserve">
<style type="text/css">
	.st0{fill:#F4A32C;}
	.st1{fill:#E89528;}
	.st2{fill:#F7E7A1;}
	.st3{fill:#F4D44E;}
</style>
<path class="st0" d="M4.8,507.6c-5.5-5.3-6.5-13.8-2.2-20.1l131.9-196.3l-104.4-45c-15.2-6.5-11-29.2,5.5-30l87.8-4.2L26.7,98.6
	c-4.9-5.7-5-14.1-0.2-20c4.8-5.9,13.1-7.5,19.7-3.9l130.7,71.5l-11.1-45.4c-1.8-7.3,1.7-14.7,8.5-17.9c6.8-3.2,14.7-1.3,19.2,4.8
	l31.4,42.3L274.8,9.7c2.9-7,10.4-10.9,17.8-9.3s12.6,8.3,12.3,15.9l-4.7,120.8l39.2-30.5c5.8-4.5,13.9-4.4,19.6,0.3
	c5.7,4.7,7.3,12.6,3.9,19.2l-22.6,44.1l110.6-19.7c7.4-1.3,14.7,2.8,17.4,9.8s0,14.9-6.3,18.9l-95.5,60l59.9,23.5
	c7.1,2.8,11.1,10.2,9.6,17.7s-8.1,12.8-15.7,12.6l-66.2-1.7l83.4,121c4.3,6.2,3.6,14.4-1.7,19.8c-5.3,5.4-13.5,6.3-19.8,2.2
	l-120.7-78.7v118.2c0,7.4-5,13.7-12.3,15.3c-7.3,1.6-14.5-2-17.6-8.8l-50.9-111.5L24.9,508.9C18.8,513.5,10.3,512.9,4.8,507.6z"/>
<path class="st1" d="M274.8,9.7l-49.9,120.2c0,0-6.7,13.6-7.5,33.5l40.7,140.8l37.2,51.6v-0.2l120.6,78.7c6.4,4.1,14.5,3.2,19.8-2.2
	c5.3-5.4,6-13.6,1.7-19.8l-83.4-121l66.2,1.7c7.6,0.1,14.2-5.1,15.7-12.6s-2.5-14.9-9.6-17.7l-59.9-23.6l95.6-59.9
	c6.3-4,9-11.9,6.3-18.9s-10-11.1-17.4-9.8l-110.6,19.7l22.6-44.1c3.4-6.6,1.8-14.5-3.9-19.2c-5.7-4.7-13.8-4.8-19.6-0.3l-39.2,30.5
	l4.7-120.8C305.2,8.7,300,2,292.6,0.4C285.2-1.3,277.7,2.6,274.8,9.7z"/>
<path class="st2" d="M222.8,337c4.6,1.2,8.3,4.4,10.3,8.7l35.9,78.7v-88.7c0-5.8,3.1-11.1,8.2-13.8c5-2.7,11.2-2.4,16,0.7l91.7,59.8
	l-64.5-93.6c-3.4-4.8-3.7-11.1-0.9-16.3c2.9-5.2,8.3-8.3,14.2-8.2l26.4,0.7l-23.1-9.1c-5.6-2.1-9.3-7.2-9.9-13.1
	c-0.5-5.9,2.3-11.5,7.3-14.7l66.8-41.9L323.7,200c-12.8,2.2-22.6-11.1-16.7-22.6l10.4-20.2l-19.1,14.9c-4.8,3.8-11.4,4.4-16.8,1.6
	c-5.4-2.7-8.7-8.4-8.5-14.5l3.3-84l-34.2,82.4c-4.6,11.2-19.8,13-27,3.3l-11-14.8l4.3,17.4c1.4,6.1-0.8,12.4-5.7,16.2
	c-5,3.8-11.7,4.3-17.1,1.3l-101-55.3l73.1,85.9c8.4,9.9,1.8,25.2-11.2,25.8l-63.4,3l73.7,31.8c9,3.9,12.3,15,6.8,23.1L59.1,451
	l150.4-111.2C213.3,336.9,218.1,336,222.8,337z"/>
<path class="st3" d="M320.3,288.7c-3.4-4.8-3.7-11.1-0.9-16.3c2.9-5.2,8.3-8.3,14.2-8.2l26.4,0.7l-23.1-9.1
	c-5.6-2.1-9.3-7.2-9.9-13.1c-0.5-5.9,2.3-11.5,7.3-14.7l66.8-41.9l-77.5,13.8c-12.8,2.2-22.6-11.1-16.7-22.6l10.4-20.2L298.2,172
	c-4.8,3.8-11.4,4.4-16.8,1.6c-5.4-2.7-8.7-8.4-8.5-14.5l3.3-84L242,157.5c-4.2,10.1-16.8,12.6-24.6,5.9l-1,26.6
	c-0.2,5.3,2.7,10.4,7.5,12.8c4.8,2.4,10.6,1.9,14.8-1.4l16.8-13.1l-9.1,17.8c-5.2,10.2,3.5,21.9,14.7,19.9l68.2-12.2l-58.8,36.9
	c-4.4,2.8-6.9,7.8-6.4,13s3.8,9.6,8.7,11.5l20.3,8l-23.3-0.6c-5.2-0.1-10,2.6-12.5,7.2s-2.2,10.1,0.8,14.4l14.7,21.3
	c1.2-1.4,2.7-2.6,4.4-3.5c5-2.7,11.2-2.4,16,0.7l91.7,59.8L320.3,288.7z"/>
</svg>
